# Blender 4.3.1
# www.blender.org
mtllib chair5.mtl
o Cube
v -0.140832 0.275723 0.311767
v -0.140832 0.323900 0.311767
v -0.140832 0.275723 -0.050250
v -0.140832 0.323900 -0.050250
v 0.238185 0.275723 0.311767
v 0.238185 0.323900 0.311767
v 0.238185 0.275723 -0.050250
v 0.238185 0.323900 -0.050250
vn -0.1250 -0.9835 0.1309
vn -0.1250 0.9835 0.1309
vn -0.1250 -0.9835 -0.1309
vn -0.1250 0.9835 -0.1309
vn 0.1250 -0.9835 0.1309
vn 0.1250 0.9835 0.1309
vn 0.1250 -0.9835 -0.1309
vn 0.1250 0.9835 -0.1309
vt 0.375000 0.000000
vt 0.625000 0.000000
vt 0.625000 0.250000
vt 0.375000 0.250000
vt 0.625000 0.500000
vt 0.375000 0.500000
vt 0.625000 0.750000
vt 0.375000 0.750000
vt 0.625000 1.000000
vt 0.375000 1.000000
vt 0.125000 0.500000
vt 0.125000 0.750000
vt 0.875000 0.500000
vt 0.875000 0.750000
s 1
usemtl Material.001
f 1/1/1 2/2/2 4/3/4 3/4/3
f 3/4/3 4/3/4 8/5/8 7/6/7
f 7/6/7 8/5/8 6/7/6 5/8/5
f 5/8/5 6/7/6 2/9/2 1/10/1
f 3/11/3 7/6/7 5/8/5 1/12/1
f 8/5/8 4/13/4 2/14/2 6/7/6
o Cube.002
v -0.101159 0.056894 0.263488
v -0.101159 0.082894 0.263488
v -0.101159 0.056894 -0.019153
v -0.101159 0.082894 -0.019153
v -0.067030 0.056894 0.263488
v -0.067030 0.082894 0.263488
v -0.067030 0.056894 -0.019153
v -0.067030 0.082894 -0.019153
v 0.127956 -0.005750 0.288966
v 0.127956 0.322456 0.288966
v 0.127956 -0.005750 0.212035
v 0.127956 0.322456 0.212035
v 0.195207 -0.005750 0.288966
v 0.195207 0.322456 0.288966
v 0.195207 -0.005750 0.212035
v 0.195207 0.322456 0.212035
v -0.097497 -0.005750 0.037122
v -0.097497 0.322456 0.037122
v -0.097497 -0.005750 -0.039809
v -0.097497 0.322456 -0.039809
v -0.030247 -0.005750 0.037122
v -0.030247 0.322456 0.037122
v -0.030247 -0.005750 -0.039809
v -0.030247 0.322456 -0.039809
v -0.097497 -0.005750 0.037122
v -0.097497 0.322456 0.037122
v -0.097497 -0.005750 -0.039809
v -0.097497 0.322456 -0.039809
v -0.030247 -0.005750 0.037122
v -0.030247 0.322456 0.037122
v -0.030247 -0.005750 -0.039809
v -0.030247 0.322456 -0.039809
v 0.127956 -0.005750 0.037122
v 0.127956 0.322456 0.037122
v 0.127956 -0.005750 -0.039809
v 0.127956 0.322456 -0.039809
v 0.195207 -0.005750 0.037122
v 0.195207 0.322456 0.037122
v 0.195207 -0.005750 -0.039809
v 0.195207 0.322456 -0.039809
v -0.097497 -0.005750 0.288966
v -0.097497 0.322456 0.288966
v -0.097497 -0.005750 0.212035
v -0.097497 0.322456 0.212035
v -0.030247 -0.005750 0.288966
v -0.030247 0.322456 0.288966
v -0.030247 -0.005750 0.212035
v -0.030247 0.322456 0.212035
v -0.097497 -0.005750 0.288966
v -0.097497 0.322456 0.288966
v -0.097497 -0.005750 0.212035
v -0.097497 0.322456 0.212035
v -0.030247 -0.005750 0.288966
v -0.030247 0.322456 0.288966
v -0.030247 -0.005750 0.212035
v -0.030247 0.322456 0.212035
v 0.163937 0.056894 0.263488
v 0.163937 0.082894 0.263488
v 0.163937 0.056894 -0.019153
v 0.163937 0.082894 -0.019153
v 0.198066 0.056894 0.263488
v 0.198066 0.082894 0.263488
v 0.198066 0.056894 -0.019153
v 0.198066 0.082894 -0.019153
v -0.086616 0.056894 0.228290
v -0.086616 0.082894 0.228290
v 0.195990 0.056894 0.223827
v 0.195990 0.082894 0.223827
v -0.086077 0.056894 0.262415
v -0.086077 0.082894 0.262415
v 0.196528 0.056894 0.257952
v 0.196528 0.082894 0.257952
v -0.086616 0.056894 -0.037295
v -0.086616 0.082894 -0.037295
v 0.195990 0.056894 -0.041758
v 0.195990 0.082894 -0.041758
v -0.086077 0.056894 -0.003171
v -0.086077 0.082894 -0.003171
v 0.196528 0.056894 -0.007634
v 0.196528 0.082894 -0.007634
vn -0.6044 -0.7933 0.0730
vn -0.6044 0.7933 0.0730
vn -0.6044 -0.7933 -0.0730
vn -0.6044 0.7933 -0.0730
vn 0.6044 -0.7933 0.0730
vn 0.6044 0.7933 0.0730
vn 0.6044 -0.7933 -0.0730
vn 0.6044 0.7933 -0.0730
vn -0.6345 -0.7700 -0.0671
vn -0.6345 0.7700 -0.0671
vn 0.5701 -0.8178 -0.0786
vn 0.5701 0.8178 -0.0786
vn -0.5701 -0.8178 0.0786
vn -0.5701 0.8178 0.0786
vn 0.6345 -0.7700 0.0671
vn 0.6345 0.7700 0.0671
vt 0.375000 0.000000
vt 0.625000 0.000000
vt 0.625000 0.250000
vt 0.375000 0.250000
vt 0.625000 0.500000
vt 0.375000 0.500000
vt 0.625000 0.750000
vt 0.375000 0.750000
vt 0.625000 1.000000
vt 0.375000 1.000000
vt 0.125000 0.500000
vt 0.125000 0.750000
vt 0.875000 0.500000
vt 0.875000 0.750000
s 1
usemtl Material.002
f 9/15/9 10/16/10 12/17/12 11/18/11
f 11/18/11 12/17/12 16/19/16 15/20/15
f 15/20/15 16/19/16 14/21/14 13/22/13
f 13/22/13 14/21/14 10/23/10 9/24/9
f 11/25/11 15/20/15 13/22/13 9/26/9
f 16/19/16 12/27/12 10/28/10 14/21/14
f 17/15/9 18/16/10 20/17/12 19/18/11
f 19/18/11 20/17/12 24/19/16 23/20/15
f 23/20/15 24/19/16 22/21/14 21/22/13
f 21/22/13 22/21/14 18/23/10 17/24/9
f 19/25/11 23/20/15 21/22/13 17/26/9
f 24/19/16 20/27/12 18/28/10 22/21/14
f 25/15/9 26/16/10 28/17/12 27/18/11
f 27/18/11 28/17/12 32/19/16 31/20/15
f 31/20/15 32/19/16 30/21/14 29/22/13
f 29/22/13 30/21/14 26/23/10 25/24/9
f 27/25/11 31/20/15 29/22/13 25/26/9
f 32/19/16 28/27/12 26/28/10 30/21/14
f 33/15/9 34/16/10 36/17/12 35/18/11
f 35/18/11 36/17/12 40/19/16 39/20/15
f 39/20/15 40/19/16 38/21/14 37/22/13
f 37/22/13 38/21/14 34/23/10 33/24/9
f 35/25/11 39/20/15 37/22/13 33/26/9
f 40/19/16 36/27/12 34/28/10 38/21/14
f 41/15/9 42/16/10 44/17/12 43/18/11
f 43/18/11 44/17/12 48/19/16 47/20/15
f 47/20/15 48/19/16 46/21/14 45/22/13
f 45/22/13 46/21/14 42/23/10 41/24/9
f 43/25/11 47/20/15 45/22/13 41/26/9
f 48/19/16 44/27/12 42/28/10 46/21/14
f 49/15/9 50/16/10 52/17/12 51/18/11
f 51/18/11 52/17/12 56/19/16 55/20/15
f 55/20/15 56/19/16 54/21/14 53/22/13
f 53/22/13 54/21/14 50/23/10 49/24/9
f 51/25/11 55/20/15 53/22/13 49/26/9
f 56/19/16 52/27/12 50/28/10 54/21/14
f 57/15/9 58/16/10 60/17/12 59/18/11
f 59/18/11 60/17/12 64/19/16 63/20/15
f 63/20/15 64/19/16 62/21/14 61/22/13
f 61/22/13 62/21/14 58/23/10 57/24/9
f 59/25/11 63/20/15 61/22/13 57/26/9
f 64/19/16 60/27/12 58/28/10 62/21/14
f 65/15/9 66/16/10 68/17/12 67/18/11
f 67/18/11 68/17/12 72/19/16 71/20/15
f 71/20/15 72/19/16 70/21/14 69/22/13
f 69/22/13 70/21/14 66/23/10 65/24/9
f 67/25/11 71/20/15 69/22/13 65/26/9
f 72/19/16 68/27/12 66/28/10 70/21/14
f 73/15/17 74/16/18 76/17/20 75/18/19
f 75/18/19 76/17/20 80/19/24 79/20/23
f 79/20/23 80/19/24 78/21/22 77/22/21
f 77/22/21 78/21/22 74/23/18 73/24/17
f 75/25/19 79/20/23 77/22/21 73/26/17
f 80/19/24 76/27/20 74/28/18 78/21/22
f 81/15/17 82/16/18 84/17/20 83/18/19
f 83/18/19 84/17/20 88/19/24 87/20/23
f 87/20/23 88/19/24 86/21/22 85/22/21
f 85/22/21 86/21/22 82/23/18 81/24/17
f 83/25/19 87/20/23 85/22/21 81/26/17
f 88/19/24 84/27/20 82/28/18 86/21/22
o Cube.008
v -0.099966 0.592632 -0.101707
v -0.099864 0.597227 -0.076032
v 0.183545 0.588602 -0.102117
v 0.183648 0.593197 -0.076443
v -0.100436 0.558933 -0.095674
v -0.100334 0.563528 -0.070000
v 0.183075 0.554904 -0.096085
v 0.183177 0.559498 -0.070410
v 0.177264 0.289692 -0.036748
v 0.177264 0.296379 -0.007270
v 0.177264 0.610135 -0.109447
v 0.177264 0.616823 -0.079969
v 0.216941 0.289692 -0.036748
v 0.216941 0.296379 -0.007270
v 0.216941 0.610135 -0.109447
v 0.216941 0.616823 -0.079969
v -0.124675 0.289692 -0.036748
v -0.124675 0.296379 -0.007270
v -0.124675 0.610135 -0.109447
v -0.124675 0.616823 -0.079969
v -0.084998 0.289692 -0.036748
v -0.084998 0.296379 -0.007270
v -0.084998 0.610135 -0.109447
v -0.084998 0.616823 -0.079969
v -0.099966 0.468964 -0.074610
v -0.099864 0.473558 -0.048936
v 0.183545 0.464934 -0.075021
v 0.183648 0.469529 -0.049346
v -0.100436 0.435265 -0.068578
v -0.100334 0.439860 -0.042904
v 0.183075 0.431236 -0.068988
v 0.183177 0.435830 -0.043314
vn -0.0678 0.4562 -0.8873
vn -0.0616 0.7357 0.6746
vn 0.0782 0.4541 -0.8875
vn 0.0844 0.7336 0.6743
vn -0.0844 -0.7336 -0.6743
vn -0.0782 -0.4541 0.8875
vn 0.0616 -0.7357 -0.6746
vn 0.0678 -0.4562 0.8873
vn -0.0787 -0.7763 -0.6254
vn -0.0744 -0.4562 0.8868
vn -0.0697 0.3703 -0.9263
vn -0.0706 0.7521 0.6553
vn 0.0706 -0.7521 -0.6553
vn 0.0697 -0.3703 0.9263
vn 0.0744 0.4562 -0.8868
vn 0.0787 0.7763 0.6254
vt 0.375000 0.000000
vt 0.625000 0.000000
vt 0.625000 0.250000
vt 0.375000 0.250000
vt 0.625000 0.500000
vt 0.375000 0.500000
vt 0.625000 0.750000
vt 0.375000 0.750000
vt 0.625000 1.000000
vt 0.375000 1.000000
vt 0.125000 0.500000
vt 0.125000 0.750000
vt 0.875000 0.500000
vt 0.875000 0.750000
s 1
usemtl Material.003
f 89/29/25 90/30/26 92/31/28 91/32/27
f 91/32/27 92/31/28 96/33/32 95/34/31
f 95/34/31 96/33/32 94/35/30 93/36/29
f 93/36/29 94/35/30 90/37/26 89/38/25
f 91/39/27 95/34/31 93/36/29 89/40/25
f 96/33/32 92/41/28 90/42/26 94/35/30
f 97/29/33 98/30/34 100/31/36 99/32/35
f 99/32/35 100/31/36 104/33/40 103/34/39
f 103/34/39 104/33/40 102/35/38 101/36/37
f 101/36/37 102/35/38 98/37/34 97/38/33
f 99/39/35 103/34/39 101/36/37 97/40/33
f 104/33/40 100/41/36 98/42/34 102/35/38
f 105/29/33 106/30/34 108/31/36 107/32/35
f 107/32/35 108/31/36 112/33/40 111/34/39
f 111/34/39 112/33/40 110/35/38 109/36/37
f 109/36/37 110/35/38 106/37/34 105/38/33
f 107/39/35 111/34/39 109/36/37 105/40/33
f 112/33/40 108/41/36 106/42/34 110/35/38
f 113/29/25 114/30/26 116/31/28 115/32/27
f 115/32/27 116/31/28 120/33/32 119/34/31
f 119/34/31 120/33/32 118/35/30 117/36/29
f 117/36/29 118/35/30 114/37/26 113/38/25
f 115/39/27 119/34/31 117/36/29 113/40/25
f 120/33/32 116/41/28 114/42/26 118/35/30
