# Blender 4.3.1
# www.blender.org
mtllib chair2.mtl
o Cube.001
v -0.264933 -0.059984 0.220663
v -0.264933 0.156468 0.220663
v -0.264933 -0.059984 0.205682
v -0.264933 0.156468 0.205682
v -0.245841 -0.059984 0.220663
v -0.245841 0.156468 0.220663
v -0.245841 -0.059984 0.205682
v -0.245841 0.156468 0.205682
v -0.264933 -0.059984 0.054665
v -0.264933 0.337359 0.054665
v -0.264933 -0.059984 0.039684
v -0.264933 0.337359 0.039684
v -0.245841 -0.059984 0.054665
v -0.245841 0.337359 0.054665
v -0.245841 -0.059984 0.039684
v -0.245841 0.337359 0.039684
v -0.076550 -0.059984 0.054665
v -0.076550 0.337359 0.054665
v -0.076550 -0.059984 0.039684
v -0.076550 0.337359 0.039684
v -0.057458 -0.059984 0.054665
v -0.057458 0.337359 0.054665
v -0.057458 -0.059984 0.039684
v -0.057458 0.337359 0.039684
v -0.245841 0.021516 0.121724
v -0.076550 0.021516 0.121723
v -0.245841 0.003861 0.121724
v -0.076550 0.003861 0.121723
v -0.245841 0.021516 0.136493
v -0.076550 0.021516 0.136493
v -0.245841 0.003861 0.136493
v -0.076550 0.003861 0.136493
v -0.232836 0.150086 0.259537
v -0.232836 0.160418 0.259537
v -0.271292 0.147305 0.035139
v -0.271292 0.163199 0.035139
v -0.089950 0.150086 0.259537
v -0.089950 0.160418 0.259537
v -0.051494 0.147305 0.035139
v -0.051494 0.163199 0.035139
v -0.283464 0.146425 0.227620
v -0.283464 0.164079 0.227620
v -0.039322 0.146425 0.227620
v -0.039322 0.164079 0.227620
v -0.285951 0.164259 0.114018
v -0.036834 0.146245 0.114018
v -0.285951 0.146245 0.114018
v -0.036834 0.164259 0.114018
v -0.275926 0.163534 0.051019
v -0.046859 0.146970 0.051019
v -0.275926 0.146970 0.051019
v -0.046859 0.163534 0.051019
v -0.279374 0.146720 0.071594
v -0.043411 0.163783 0.071594
v -0.279374 0.163783 0.071594
v -0.043411 0.146720 0.071594
v -0.283464 0.146425 0.093203
v -0.039322 0.164079 0.093203
v -0.283464 0.164079 0.093203
v -0.039322 0.146425 0.093203
v -0.289759 0.145969 0.161126
v -0.033026 0.164534 0.161126
v -0.289759 0.164534 0.161126
v -0.033026 0.145969 0.161126
v -0.289006 0.164480 0.145715
v -0.033779 0.146024 0.145715
v -0.289006 0.146024 0.145715
v -0.033779 0.164480 0.145715
v -0.290270 0.145932 0.189121
v -0.032515 0.164571 0.189121
v -0.290270 0.164571 0.189121
v -0.032515 0.145932 0.189121
v -0.286528 0.146203 0.218564
v -0.036258 0.164301 0.218564
v -0.286528 0.164301 0.218564
v -0.036258 0.146203 0.218564
v -0.271416 0.147296 0.240798
v -0.051369 0.163208 0.240798
v -0.271416 0.163208 0.240798
v -0.051369 0.147296 0.240798
v -0.229810 0.476154 0.058936
v -0.229810 0.476154 0.050658
v -0.266637 0.244072 0.061164
v -0.266637 0.244072 0.048430
v -0.092975 0.476154 0.058936
v -0.092975 0.476154 0.050658
v -0.056148 0.244072 0.061164
v -0.056148 0.244072 0.048430
v -0.278294 0.446112 0.061869
v -0.278294 0.446112 0.047725
v -0.044491 0.446112 0.061869
v -0.044491 0.446112 0.047725
v -0.280676 0.332379 0.047581
v -0.042109 0.332379 0.062013
v -0.280676 0.332379 0.062013
v -0.042109 0.332379 0.047581
v -0.271076 0.273083 0.048161
v -0.051709 0.273083 0.061432
v -0.271076 0.273083 0.061432
v -0.051709 0.273083 0.048161
v -0.274378 0.292448 0.061632
v -0.048407 0.292448 0.047962
v -0.274378 0.292449 0.047962
v -0.048407 0.292448 0.061632
v -0.278294 0.312788 0.061869
v -0.044491 0.312788 0.047725
v -0.278294 0.312788 0.047725
v -0.044491 0.312788 0.061869
v -0.284323 0.376720 0.062234
v -0.038462 0.376720 0.047360
v -0.284323 0.376720 0.047360
v -0.038462 0.376720 0.062234
v -0.283601 0.362215 0.047404
v -0.039184 0.362215 0.062190
v -0.283601 0.362215 0.062190
v -0.039184 0.362215 0.047404
v -0.284812 0.403070 0.062263
v -0.037973 0.403070 0.047330
v -0.284812 0.403070 0.047330
v -0.037973 0.403070 0.062263
v -0.281228 0.430783 0.062046
v -0.041557 0.430783 0.047547
v -0.281228 0.430783 0.047547
v -0.041557 0.430783 0.062046
v -0.266756 0.458516 0.061171
v -0.056029 0.458516 0.048423
v -0.266756 0.458516 0.048423
v -0.056029 0.458516 0.061171
v -0.076550 -0.059984 0.220663
v -0.076550 0.156469 0.220663
v -0.076550 -0.059984 0.205682
v -0.076550 0.156469 0.205682
v -0.057458 -0.059984 0.220663
v -0.057458 0.156469 0.220663
v -0.057458 -0.059984 0.205682
v -0.057458 0.156469 0.205682
v -0.076550 0.003750 0.054665
v -0.076550 0.003750 0.205682
v -0.076550 0.021657 0.054665
v -0.076550 0.021657 0.205682
v -0.057458 0.003750 0.054665
v -0.057458 0.003750 0.205682
v -0.057458 0.021657 0.054665
v -0.057458 0.021657 0.205682
v -0.264933 0.003750 0.054665
v -0.264933 0.003750 0.205682
v -0.264933 0.021657 0.054665
v -0.264933 0.021657 0.205682
v -0.245841 0.003750 0.054665
v -0.245841 0.003750 0.205682
v -0.245841 0.021657 0.054665
v -0.245841 0.021657 0.205682
vn -1.0000 -0.0000 -0.0000
vn -0.0000 -0.0000 -1.0000
vn 1.0000 -0.0000 -0.0000
vn -0.0000 -0.0000 1.0000
vn -0.0000 -1.0000 -0.0000
vn -0.0000 1.0000 -0.0000
vn -0.9600 -0.0000 -0.2802
vn 0.4369 -0.0000 0.8995
vn -0.0000 -0.9891 0.1473
vn -0.0000 0.9891 0.1473
vn -0.0000 0.9997 0.0245
vn -0.0000 -0.9997 0.0245
vn 0.9473 -0.0000 0.3205
vn -0.7380 -0.0000 0.6748
vn 0.9929 -0.0000 -0.1187
vn -0.0000 -1.0000 -0.0086
vn -0.0000 1.0000 -0.0086
vn -0.9954 -0.0000 -0.0959
vn -0.0000 0.9998 -0.0211
vn -0.0000 -0.9998 -0.0211
vn 0.9600 -0.0000 -0.2802
vn -0.9862 -0.0000 -0.1653
vn -0.9826 -0.0000 -0.1859
vn -0.0000 0.9999 -0.0121
vn -0.0000 -0.9999 -0.0121
vn 0.9862 -0.0000 -0.1653
vn -0.9929 -0.0000 -0.1187
vn -0.0000 0.9999 -0.0137
vn -0.0000 -0.9999 -0.0137
vn 0.9826 -0.0000 -0.1859
vn -0.9998 -0.0000 -0.0183
vn 0.9988 -0.0000 -0.0488
vn -0.0000 -1.0000 -0.0035
vn -0.0000 1.0000 -0.0035
vn -0.0000 1.0000 -0.0070
vn -0.0000 -1.0000 -0.0070
vn 0.9954 -0.0000 -0.0959
vn -0.9988 -0.0000 -0.0488
vn -0.9920 -0.0000 0.1261
vn 0.9998 -0.0000 -0.0183
vn -0.0000 -1.0000 -0.0013
vn -0.0000 1.0000 -0.0013
vn -0.9473 -0.0000 0.3205
vn 0.9920 -0.0000 0.1261
vn -0.0000 -1.0000 0.0092
vn -0.0000 1.0000 0.0092
vn -0.4369 -0.0000 0.8995
vn -0.0000 0.9978 0.0660
vn -0.0000 -0.9978 0.0660
vn 0.7380 -0.0000 0.6748
vn -0.9885 -0.1512 -0.0000
vn 0.4308 0.9024 -0.0000
vn -0.0000 0.1257 0.9921
vn -0.0000 0.1257 -0.9921
vn -0.0000 0.0116 -0.9999
vn -0.0000 0.0116 0.9999
vn 0.9822 0.1880 -0.0000
vn -0.7322 0.6811 -0.0000
vn 0.9927 -0.1207 -0.0000
vn -0.0000 -0.0074 1.0000
vn -0.0000 -0.0074 -1.0000
vn -0.9952 -0.0976 -0.0000
vn -0.0000 -0.0093 -1.0000
vn -0.0000 -0.0093 1.0000
vn 0.9885 -0.1512 -0.0000
vn -0.9858 -0.1681 -0.0000
vn -0.9820 -0.1891 -0.0000
vn -0.0000 -0.0103 -0.9999
vn -0.0000 -0.0103 0.9999
vn 0.9858 -0.1681 -0.0000
vn -0.9927 -0.1207 -0.0000
vn -0.0000 -0.0116 -0.9999
vn -0.0000 -0.0116 0.9999
vn 0.9820 -0.1891 -0.0000
vn -0.9998 -0.0186 -0.0000
vn 0.9988 -0.0497 -0.0000
vn -0.0000 -0.0030 1.0000
vn -0.0000 -0.0030 -1.0000
vn -0.0000 -0.0059 -1.0000
vn -0.0000 -0.0059 1.0000
vn 0.9952 -0.0976 -0.0000
vn -0.9988 -0.0497 -0.0000
vn -0.9917 0.1283 -0.0000
vn 0.9998 -0.0186 -0.0000
vn -0.0000 -0.0011 1.0000
vn -0.0000 -0.0011 -1.0000
vn -0.9822 0.1880 -0.0000
vn 0.9917 0.1283 -0.0000
vn -0.0000 0.0078 1.0000
vn -0.0000 0.0078 -1.0000
vn -0.4308 0.9024 -0.0000
vn -0.0000 0.0562 -0.9984
vn -0.0000 0.0562 0.9984
vn 0.7322 0.6811 -0.0000
vt 0.375000 0.000000
vt 0.625000 0.000000
vt 0.625000 0.250000
vt 0.375000 0.250000
vt 0.625000 0.500000
vt 0.375000 0.500000
vt 0.625000 0.750000
vt 0.375000 0.750000
vt 0.625000 1.000000
vt 0.375000 1.000000
vt 0.125000 0.500000
vt 0.125000 0.750000
vt 0.875000 0.500000
vt 0.875000 0.750000
vt 0.375000 0.218750
vt 0.625000 0.218750
vt 0.375000 0.687500
vt 0.625000 0.687500
vt 0.125000 0.687500
vt 0.875000 0.687500
vt 0.625000 0.617188
vt 0.875000 0.617188
vt 0.875000 0.625000
vt 0.625000 0.625000
vt 0.125000 0.617188
vt 0.375000 0.617188
vt 0.375000 0.625000
vt 0.125000 0.625000
vt 0.375000 0.062500
vt 0.625000 0.062500
vt 0.625000 0.125000
vt 0.375000 0.125000
vt 0.375000 0.554688
vt 0.625000 0.554688
vt 0.625000 0.562500
vt 0.375000 0.562500
vt 0.125000 0.554688
vt 0.125000 0.562500
vt 0.875000 0.554688
vt 0.875000 0.562500
vt 0.375000 0.171875
vt 0.625000 0.171875
vt 0.625000 0.187500
vt 0.375000 0.187500
vt 0.875000 0.531250
vt 0.625000 0.531250
vt 0.375000 0.531250
vt 0.125000 0.531250
vt 0.375000 0.203125
vt 0.625000 0.203125
vt 0.375000 0.195312
vt 0.625000 0.195312
vt 0.875000 0.546875
vt 0.625000 0.546875
vt 0.375000 0.546875
vt 0.125000 0.546875
vt 0.375000 0.140625
vt 0.625000 0.140625
vt 0.625000 0.156250
vt 0.375000 0.156250
vt 0.375000 0.578125
vt 0.625000 0.578125
vt 0.625000 0.593750
vt 0.375000 0.593750
vt 0.125000 0.578125
vt 0.125000 0.593750
vt 0.875000 0.578125
vt 0.875000 0.593750
vt 0.375000 0.132812
vt 0.625000 0.132812
vt 0.625000 0.609375
vt 0.375000 0.609375
vt 0.125000 0.609375
vt 0.875000 0.609375
s 0
usemtl Material
f 1/1/1 2/2/1 4/3/1 3/4/1
f 3/4/2 4/3/2 8/5/2 7/6/2
f 7/6/3 8/5/3 6/7/3 5/8/3
f 5/8/4 6/7/4 2/9/4 1/10/4
f 3/11/5 7/6/5 5/8/5 1/12/5
f 8/5/6 4/13/6 2/14/6 6/7/6
f 9/1/1 10/2/1 12/3/1 11/4/1
f 11/4/2 12/3/2 16/5/2 15/6/2
f 15/6/3 16/5/3 14/7/3 13/8/3
f 13/8/4 14/7/4 10/9/4 9/10/4
f 11/11/5 15/6/5 13/8/5 9/12/5
f 16/5/6 12/13/6 10/14/6 14/7/6
f 17/1/1 18/2/1 20/3/1 19/4/1
f 19/4/2 20/3/2 24/5/2 23/6/2
f 23/6/3 24/5/3 22/7/3 21/8/3
f 21/8/4 22/7/4 18/9/4 17/10/4
f 19/11/5 23/6/5 21/8/5 17/12/5
f 24/5/6 20/13/6 18/14/6 22/7/6
f 25/1/2 26/2/2 28/3/2 27/4/2
f 27/4/5 28/3/5 32/5/5 31/6/5
f 31/6/4 32/5/4 30/7/4 29/8/4
f 29/8/6 30/7/6 26/9/6 25/10/6
f 27/11/1 31/6/1 29/8/1 25/12/1
f 32/5/3 28/13/3 26/14/3 30/7/3
f 51/15/7 49/16/7 36/3/7 35/4/7
f 35/4/2 36/3/2 40/5/2 39/6/2
f 80/17/8 78/18/8 38/7/8 37/8/8
f 37/8/4 38/7/4 34/9/4 33/10/4
f 77/19/9 80/17/9 37/8/9 33/12/9
f 78/18/10 79/20/10 34/14/10 38/7/10
f 74/21/11 75/22/11 42/23/11 44/24/11
f 73/25/12 76/26/12 43/27/12 41/28/12
f 76/26/13 74/21/13 44/24/13 43/27/13
f 77/29/14 79/30/14 42/31/14 41/32/14
f 60/33/15 58/34/15 48/35/15 46/36/15
f 57/37/16 60/33/16 46/36/16 47/38/16
f 58/34/17 59/39/17 45/40/17 48/35/17
f 67/41/18 65/42/18 45/43/18 47/44/18
f 40/5/19 36/13/19 49/45/19 52/46/19
f 35/11/20 39/6/20 50/47/20 51/48/20
f 39/6/21 40/5/21 52/46/21 50/47/21
f 53/49/22 55/50/22 49/16/22 51/15/22
f 57/51/23 59/52/23 55/50/23 53/49/23
f 52/46/24 49/45/24 55/53/24 54/54/24
f 51/48/25 50/47/25 56/55/25 53/56/25
f 50/47/26 52/46/26 54/54/26 56/55/26
f 47/44/27 45/43/27 59/52/27 57/51/27
f 54/54/28 55/53/28 59/39/28 58/34/28
f 53/56/29 56/55/29 60/33/29 57/37/29
f 56/55/30 54/54/30 58/34/30 60/33/30
f 69/57/31 71/58/31 63/59/31 61/60/31
f 66/61/32 68/62/32 62/63/32 64/64/32
f 67/65/33 66/61/33 64/64/33 61/66/33
f 68/62/34 65/67/34 63/68/34 62/63/34
f 48/35/35 45/40/35 65/67/35 68/62/35
f 47/38/36 46/36/36 66/61/36 67/65/36
f 46/36/37 48/35/37 68/62/37 66/61/37
f 61/60/38 63/59/38 65/42/38 67/41/38
f 73/69/39 75/70/39 71/58/39 69/57/39
f 64/64/40 62/63/40 70/71/40 72/72/40
f 61/66/41 64/64/41 72/72/41 69/73/41
f 62/63/42 63/68/42 71/74/42 70/71/42
f 41/32/43 42/31/43 75/70/43 73/69/43
f 72/72/44 70/71/44 74/21/44 76/26/44
f 69/73/45 72/72/45 76/26/45 73/25/45
f 70/71/46 71/74/46 75/22/46 74/21/46
f 33/1/47 34/2/47 79/30/47 77/29/47
f 44/24/48 42/23/48 79/20/48 78/18/48
f 41/28/49 43/27/49 80/17/49 77/19/49
f 43/27/50 44/24/50 78/18/50 80/17/50
f 99/15/51 97/16/51 84/3/51 83/4/51
f 83/4/5 84/3/5 88/5/5 87/6/5
f 128/17/52 126/18/52 86/7/52 85/8/52
f 85/8/6 86/7/6 82/9/6 81/10/6
f 125/19/53 128/17/53 85/8/53 81/12/53
f 126/18/54 127/20/54 82/14/54 86/7/54
f 122/21/55 123/22/55 90/23/55 92/24/55
f 121/25/56 124/26/56 91/27/56 89/28/56
f 124/26/57 122/21/57 92/24/57 91/27/57
f 125/29/58 127/30/58 90/31/58 89/32/58
f 108/33/59 106/34/59 96/35/59 94/36/59
f 105/37/60 108/33/60 94/36/60 95/38/60
f 106/34/61 107/39/61 93/40/61 96/35/61
f 115/41/62 113/42/62 93/43/62 95/44/62
f 88/5/63 84/13/63 97/45/63 100/46/63
f 83/11/64 87/6/64 98/47/64 99/48/64
f 87/6/65 88/5/65 100/46/65 98/47/65
f 101/49/66 103/50/66 97/16/66 99/15/66
f 105/51/67 107/52/67 103/50/67 101/49/67
f 100/46/68 97/45/68 103/53/68 102/54/68
f 99/48/69 98/47/69 104/55/69 101/56/69
f 98/47/70 100/46/70 102/54/70 104/55/70
f 95/44/71 93/43/71 107/52/71 105/51/71
f 102/54/72 103/53/72 107/39/72 106/34/72
f 101/56/73 104/55/73 108/33/73 105/37/73
f 104/55/74 102/54/74 106/34/74 108/33/74
f 117/57/75 119/58/75 111/59/75 109/60/75
f 114/61/76 116/62/76 110/63/76 112/64/76
f 115/65/77 114/61/77 112/64/77 109/66/77
f 116/62/78 113/67/78 111/68/78 110/63/78
f 96/35/79 93/40/79 113/67/79 116/62/79
f 95/38/80 94/36/80 114/61/80 115/65/80
f 94/36/81 96/35/81 116/62/81 114/61/81
f 109/60/82 111/59/82 113/42/82 115/41/82
f 121/69/83 123/70/83 119/58/83 117/57/83
f 112/64/84 110/63/84 118/71/84 120/72/84
f 109/66/85 112/64/85 120/72/85 117/73/85
f 110/63/86 111/68/86 119/74/86 118/71/86
f 89/32/87 90/31/87 123/70/87 121/69/87
f 120/72/88 118/71/88 122/21/88 124/26/88
f 117/73/89 120/72/89 124/26/89 121/25/89
f 118/71/90 119/74/90 123/22/90 122/21/90
f 81/1/91 82/2/91 127/30/91 125/29/91
f 92/24/92 90/23/92 127/20/92 126/18/92
f 89/28/93 91/27/93 128/17/93 125/19/93
f 91/27/94 92/24/94 126/18/94 128/17/94
f 129/1/1 130/2/1 132/3/1 131/4/1
f 131/4/2 132/3/2 136/5/2 135/6/2
f 135/6/3 136/5/3 134/7/3 133/8/3
f 133/8/4 134/7/4 130/9/4 129/10/4
f 131/11/5 135/6/5 133/8/5 129/12/5
f 136/5/6 132/13/6 130/14/6 134/7/6
f 137/1/1 138/2/1 140/3/1 139/4/1
f 139/4/6 140/3/6 144/5/6 143/6/6
f 143/6/3 144/5/3 142/7/3 141/8/3
f 141/8/5 142/7/5 138/9/5 137/10/5
f 139/11/2 143/6/2 141/8/2 137/12/2
f 144/5/4 140/13/4 138/14/4 142/7/4
f 145/1/1 146/2/1 148/3/1 147/4/1
f 147/4/6 148/3/6 152/5/6 151/6/6
f 151/6/3 152/5/3 150/7/3 149/8/3
f 149/8/5 150/7/5 146/9/5 145/10/5
f 147/11/2 151/6/2 149/8/2 145/12/2
f 152/5/4 148/13/4 146/14/4 150/7/4
