# Blender 4.3.1
# www.blender.org
mtllib closet2.mtl
o Cube.006
v -0.800001 1.946972 -0.164061
v -0.800001 1.946972 -0.164061
v -0.800001 1.946972 -0.164061
v -0.800001 1.946972 -0.156061
v -0.800001 1.946972 -0.156061
v -0.800001 1.946972 -0.156061
v 0.628571 1.946972 -0.164061
v 0.628571 1.946972 -0.164061
v 0.628571 1.946972 -0.164061
v 0.628571 1.946972 -0.156061
v 0.628571 1.946972 -0.156061
v 0.628571 1.946972 -0.156061
v -0.800000 0.075664 -0.164060
v -0.800000 0.075664 -0.164060
v -0.800000 0.075664 -0.164060
v -0.800000 0.075664 -0.156060
v -0.800000 0.075664 -0.156060
v -0.800000 0.075664 -0.156060
v 0.628571 0.075664 -0.164061
v 0.628571 0.075664 -0.164061
v 0.628571 0.075664 -0.164061
v 0.628571 0.075664 -0.156061
v 0.628571 0.075664 -0.156061
v 0.628571 0.075664 -0.156061
v -0.800000 0.075664 0.468519
v -0.800000 0.075664 0.468519
v -0.800000 0.075664 0.468519
v -0.800000 0.088216 0.468519
v -0.800000 0.088216 0.468519
v -0.800000 0.088216 0.468519
v -0.800000 0.075664 -0.156060
v -0.800000 0.075664 -0.156060
v -0.800000 0.075664 -0.156060
v -0.800000 0.088216 -0.156060
v -0.800000 0.088216 -0.156060
v -0.800000 0.088216 -0.156060
v 0.628571 0.075664 0.468519
v 0.628571 0.075664 0.468519
v 0.628571 0.075664 0.468519
v 0.628571 0.088216 0.468519
v 0.628571 0.088216 0.468519
v 0.628571 0.088216 0.468519
v 0.628571 0.075664 -0.156061
v 0.628571 0.075664 -0.156061
v 0.628571 0.075664 -0.156061
v 0.628571 0.088216 -0.156061
v 0.628571 0.088216 -0.156061
v 0.628571 0.088216 -0.156061
v -0.800001 1.934420 0.468519
v -0.800001 1.934420 0.468519
v -0.800001 1.934420 0.468519
v -0.787192 1.934420 0.468519
v -0.787192 1.934420 0.468519
v -0.787192 1.934420 0.468519
v -0.800001 1.934420 -0.156060
v -0.800001 1.934420 -0.156060
v -0.800001 1.934420 -0.156060
v -0.787192 1.934420 -0.156060
v -0.787192 1.934420 -0.156060
v -0.787192 1.934420 -0.156060
v -0.800000 0.088255 0.468519
v -0.800000 0.088255 0.468519
v -0.800000 0.088255 0.468519
v -0.787192 0.088255 0.468519
v -0.787192 0.088255 0.468519
v -0.787192 0.088255 0.468519
v -0.800000 0.088255 -0.156060
v -0.800000 0.088255 -0.156060
v -0.800000 0.088255 -0.156060
v -0.787192 0.088255 -0.156060
v -0.787192 0.088255 -0.156060
v -0.787192 0.088255 -0.156060
v 0.615762 1.934420 0.468519
v 0.615762 1.934420 0.468519
v 0.615762 1.934420 0.468519
v 0.628571 1.934420 0.468519
v 0.628571 1.934420 0.468519
v 0.628571 1.934420 0.468519
v 0.615762 1.934420 -0.156061
v 0.615762 1.934420 -0.156061
v 0.615762 1.934420 -0.156061
v 0.628571 1.934420 -0.156061
v 0.628571 1.934420 -0.156061
v 0.628571 1.934420 -0.156061
v 0.615763 0.088255 0.468519
v 0.615763 0.088255 0.468519
v 0.615763 0.088255 0.468519
v 0.628572 0.088255 0.468519
v 0.628572 0.088255 0.468519
v 0.628572 0.088255 0.468519
v 0.615763 0.088255 -0.156061
v 0.615763 0.088255 -0.156061
v 0.615763 0.088255 -0.156061
v 0.628571 0.088255 -0.156061
v 0.628571 0.088255 -0.156061
v 0.628571 0.088255 -0.156061
v -0.800000 1.934420 0.468519
v -0.800000 1.934420 0.468519
v -0.800000 1.934420 0.468519
v -0.800000 1.946972 0.468519
v -0.800000 1.946972 0.468519
v -0.800000 1.946972 0.468519
v -0.800000 1.934420 -0.156060
v -0.800000 1.934420 -0.156060
v -0.800000 1.934420 -0.156060
v -0.800000 1.946972 -0.156060
v -0.800000 1.946972 -0.156060
v -0.800000 1.946972 -0.156060
v 0.628571 1.934420 0.468519
v 0.628571 1.934420 0.468519
v 0.628571 1.934420 0.468519
v 0.628571 1.946972 0.468519
v 0.628571 1.946972 0.468519
v 0.628571 1.946972 0.468519
v 0.628571 1.934420 -0.156061
v 0.628571 1.934420 -0.156061
v 0.628571 1.934420 -0.156061
v 0.628571 1.946972 -0.156061
v 0.628571 1.946972 -0.156061
v 0.628571 1.946972 -0.156061
v -0.092121 1.934420 0.468519
v -0.092121 1.934420 0.468519
v -0.092121 1.934420 0.468519
v -0.079312 1.934420 0.468519
v -0.079312 1.934420 0.468519
v -0.079312 1.934420 0.468519
v -0.092121 1.934420 -0.156060
v -0.092121 1.934420 -0.156060
v -0.092121 1.934420 -0.156060
v -0.079312 1.934420 -0.156060
v -0.079312 1.934420 -0.156060
v -0.079312 1.934420 -0.156060
v -0.092120 0.537281 0.468519
v -0.092120 0.537281 0.468519
v -0.092120 0.537281 0.468519
v -0.079311 0.537281 0.468519
v -0.079311 0.537281 0.468519
v -0.079311 0.537281 0.468519
v -0.092120 0.537281 -0.156060
v -0.092120 0.537281 -0.156060
v -0.092120 0.537281 -0.156060
v -0.079311 0.537281 -0.156060
v -0.079311 0.537281 -0.156060
v -0.079311 0.537281 -0.156060
vn -0.0000 1.0000 -0.0000
vn 1.0000 -0.0000 -0.0000
vn -0.0000 -1.0000 -0.0000
vn -1.0000 -0.0000 -0.0000
vn -0.0000 -0.0000 -1.0000
vn -0.0000 -0.0000 1.0000
vt 0.376016 0.000000
vt 0.626016 0.000000
vt 0.626016 0.250000
vt 0.376016 0.250000
vt 0.626016 0.500000
vt 0.376016 0.500000
vt 0.626016 0.750000
vt 0.376016 0.750000
vt 0.626016 1.000000
vt 0.376016 1.000000
vt 0.126016 0.500000
vt 0.126016 0.750000
vt 0.755855 -0.001543
vt 0.755855 0.998457
vt 0.263919 0.995370
vt 0.262306 -0.004629
vt 0.005581 0.999542
vt 0.010099 0.999635
vt 0.008594 0.000015
vt 0.005583 0.000199
vt 0.002672 0.999984
vt 0.001033 0.999984
vt 0.001033 0.000016
vt 0.002672 0.000016
vt 0.008592 0.000332
vt 0.005580 0.000305
vt 0.005580 0.999965
vt 0.010096 0.999635
vt 0.002705 0.000016
vt 0.004345 0.000016
vt 0.004345 0.999984
vt 0.002705 0.999984
vt 0.010535 0.358758
vt 0.010347 0.358757
vt 0.010347 0.000015
vt 0.010535 0.000015
vt 0.876016 0.500000
vt 0.876016 0.750000
vt 0.010317 0.358758
vt 0.010130 0.358757
vt 0.010130 0.000015
vt 0.010317 0.000015
vt 0.001031 0.999695
vt 0.004043 0.999668
vt 0.005547 0.000344
vt 0.001031 0.000015
vt 0.006017 0.999984
vt 0.004378 0.999984
vt 0.004378 0.000016
vt 0.006017 0.000016
vt 0.005550 0.000344
vt 0.001032 0.000437
vt 0.001034 0.999801
vt 0.004044 0.999985
vt 0.006049 0.000016
vt 0.007689 0.000016
vt 0.007689 0.999984
vt 0.006049 0.999984
s 0
usemtl Material.003
f 3/1/1 6/2/1 12/3/1
f 3/1/1 12/3/1 9/4/1
f 7/4/2 10/3/2 22/5/2
f 7/4/2 22/5/2 19/6/2
f 21/6/3 24/5/3 18/7/3
f 21/6/3 18/7/3 15/8/3
f 13/8/4 16/7/4 4/9/4
f 13/8/4 4/9/4 1/10/4
f 8/11/5 20/6/5 14/8/5
f 8/11/5 14/8/5 2/12/5
f 23/13/6 11/14/6 5/15/6
f 23/13/6 5/15/6 17/16/6
f 25/17/4 28/18/4 34/19/4
f 25/17/4 34/19/4 31/20/4
f 32/21/5 35/22/5 47/23/5
f 32/21/5 47/23/5 44/24/5
f 43/25/2 46/26/2 40/27/2
f 43/25/2 40/27/2 37/28/2
f 38/29/6 41/30/6 29/31/6
f 38/29/6 29/31/6 26/32/6
f 33/20/3 45/25/3 39/28/3
f 33/20/3 39/28/3 27/17/3
f 48/26/1 36/19/1 30/18/1
f 48/26/1 30/18/1 42/27/1
f 51/33/1 54/34/1 60/35/1
f 51/33/1 60/35/1 57/36/1
f 56/4/5 59/3/5 71/5/5
f 56/4/5 71/5/5 68/6/5
f 69/6/3 72/5/3 66/7/3
f 69/6/3 66/7/3 63/8/3
f 62/8/6 65/7/6 53/9/6
f 62/8/6 53/9/6 50/10/6
f 55/11/4 67/6/4 61/8/4
f 55/11/4 61/8/4 49/12/4
f 70/5/2 58/37/2 52/38/2
f 70/5/2 52/38/2 64/7/2
f 75/39/1 78/40/1 84/41/1
f 75/39/1 84/41/1 81/42/1
f 80/4/5 83/3/5 95/5/5
f 80/4/5 95/5/5 92/6/5
f 93/6/3 96/5/3 90/7/3
f 93/6/3 90/7/3 87/8/3
f 86/8/6 89/7/6 77/9/6
f 86/8/6 77/9/6 74/10/6
f 79/11/4 91/6/4 85/8/4
f 79/11/4 85/8/4 73/12/4
f 94/5/2 82/37/2 76/38/2
f 94/5/2 76/38/2 88/7/2
f 97/43/4 100/44/4 106/45/4
f 97/43/4 106/45/4 103/46/4
f 104/47/5 107/48/5 119/49/5
f 104/47/5 119/49/5 116/50/5
f 115/51/2 118/52/2 112/53/2
f 115/51/2 112/53/2 109/54/2
f 110/55/6 113/56/6 101/57/6
f 110/55/6 101/57/6 98/58/6
f 105/46/3 117/51/3 111/54/3
f 105/46/3 111/54/3 99/43/3
f 120/52/1 108/45/1 102/44/1
f 120/52/1 102/44/1 114/53/1
f 123/1/1 126/2/1 132/3/1
f 123/1/1 132/3/1 129/4/1
f 128/4/5 131/3/5 143/5/5
f 128/4/5 143/5/5 140/6/5
f 141/6/3 144/5/3 138/7/3
f 141/6/3 138/7/3 135/8/3
f 134/8/6 137/7/6 125/9/6
f 134/8/6 125/9/6 122/10/6
f 127/11/4 139/6/4 133/8/4
f 127/11/4 133/8/4 121/12/4
f 142/5/2 130/37/2 124/38/2
f 142/5/2 124/38/2 136/7/2
o Cube.001
v -0.787192 0.524728 0.468519
v -0.787192 0.524728 0.468519
v -0.787192 0.524728 0.468519
v -0.787192 0.537281 0.468519
v -0.787192 0.537281 0.468519
v -0.787192 0.537281 0.468519
v -0.787191 0.524728 -0.156060
v -0.787191 0.524728 -0.156060
v -0.787191 0.524728 -0.156060
v -0.787191 0.537281 -0.156060
v -0.787191 0.537281 -0.156060
v -0.787191 0.537281 -0.156060
v 0.615763 0.524728 0.468519
v 0.615763 0.524728 0.468519
v 0.615763 0.524728 0.468519
v 0.615763 0.537281 0.468519
v 0.615763 0.537281 0.468519
v 0.615763 0.537281 0.468519
v 0.615763 0.524728 -0.156061
v 0.615763 0.524728 -0.156061
v 0.615763 0.524728 -0.156061
v 0.615763 0.537281 -0.156061
v 0.615763 0.537281 -0.156061
v 0.615763 0.537281 -0.156061
v -0.787192 1.028081 0.468519
v -0.787192 1.028081 0.468519
v -0.787192 1.028081 0.468519
v -0.787192 1.040633 0.468519
v -0.787192 1.040633 0.468519
v -0.787192 1.040633 0.468519
v -0.787192 1.028081 -0.156060
v -0.787192 1.028081 -0.156060
v -0.787192 1.028081 -0.156060
v -0.787192 1.040633 -0.156060
v -0.787192 1.040633 -0.156060
v -0.787192 1.040633 -0.156060
v 0.615763 1.028081 0.468519
v 0.615763 1.028081 0.468519
v 0.615763 1.028081 0.468519
v 0.615763 1.040633 0.468519
v 0.615763 1.040633 0.468519
v 0.615763 1.040633 0.468519
v 0.615763 1.028081 -0.156061
v 0.615763 1.028081 -0.156061
v 0.615763 1.028081 -0.156061
v 0.615763 1.040633 -0.156061
v 0.615763 1.040633 -0.156061
v 0.615763 1.040633 -0.156061
v -0.787192 1.531434 0.468519
v -0.787192 1.531434 0.468519
v -0.787192 1.531434 0.468519
v -0.787192 1.543986 0.468519
v -0.787192 1.543986 0.468519
v -0.787192 1.543986 0.468519
v -0.787192 1.531434 -0.156060
v -0.787192 1.531434 -0.156060
v -0.787192 1.531434 -0.156060
v -0.787192 1.543986 -0.156060
v -0.787192 1.543986 -0.156060
v -0.787192 1.543986 -0.156060
v 0.615762 1.531434 0.468519
v 0.615762 1.531434 0.468519
v 0.615762 1.531434 0.468519
v 0.615762 1.543986 0.468519
v 0.615762 1.543986 0.468519
v 0.615762 1.543986 0.468519
v 0.615763 1.531434 -0.156061
v 0.615763 1.531434 -0.156061
v 0.615763 1.531434 -0.156061
v 0.615763 1.543986 -0.156061
v 0.615763 1.543986 -0.156061
v 0.615763 1.543986 -0.156061
vn -1.0000 -0.0000 -0.0000
vn -0.0000 -0.0000 -1.0000
vn 1.0000 -0.0000 -0.0000
vn -0.0000 -0.0000 1.0000
vn -0.0000 -1.0000 -0.0000
vn -0.0000 1.0000 -0.0000
vt 0.375000 0.000000
vt 0.625000 0.000000
vt 0.625000 0.250000
vt 0.375000 0.250000
vt 0.625000 0.500000
vt 0.375000 0.500000
vt 0.625000 0.750000
vt 0.375000 0.750000
vt 0.625000 1.000000
vt 0.375000 1.000000
vt 0.125000 0.500000
vt 0.125000 0.750000
vt 0.875000 0.500000
vt 0.875000 0.750000
s 0
usemtl Material.002
f 145/59/7 148/60/7 154/61/7
f 145/59/7 154/61/7 151/62/7
f 152/62/8 155/61/8 167/63/8
f 152/62/8 167/63/8 164/64/8
f 163/64/9 166/63/9 160/65/9
f 163/64/9 160/65/9 157/66/9
f 158/66/10 161/65/10 149/67/10
f 158/66/10 149/67/10 146/68/10
f 153/69/11 165/64/11 159/66/11
f 153/69/11 159/66/11 147/70/11
f 168/63/12 156/71/12 150/72/12
f 168/63/12 150/72/12 162/65/12
f 169/59/7 172/60/7 178/61/7
f 169/59/7 178/61/7 175/62/7
f 176/62/8 179/61/8 191/63/8
f 176/62/8 191/63/8 188/64/8
f 187/64/9 190/63/9 184/65/9
f 187/64/9 184/65/9 181/66/9
f 182/66/10 185/65/10 173/67/10
f 182/66/10 173/67/10 170/68/10
f 177/69/11 189/64/11 183/66/11
f 177/69/11 183/66/11 171/70/11
f 192/63/12 180/71/12 174/72/12
f 192/63/12 174/72/12 186/65/12
f 193/59/7 196/60/7 202/61/7
f 193/59/7 202/61/7 199/62/7
f 200/62/8 203/61/8 215/63/8
f 200/62/8 215/63/8 212/64/8
f 211/64/9 214/63/9 208/65/9
f 211/64/9 208/65/9 205/66/9
f 206/66/10 209/65/10 197/67/10
f 206/66/10 197/67/10 194/68/10
f 201/69/11 213/64/11 207/66/11
f 201/69/11 207/66/11 195/70/11
f 216/63/12 204/71/12 198/72/12
f 216/63/12 198/72/12 210/65/12
