# Blender 4.3.1
# www.blender.org
mtllib table5.mtl
o Cube
v 0.189516 0.487038 0.959402
v 0.189516 0.487038 0.959402
v 0.189516 0.487038 0.959402
v 0.189516 0.487038 0.029489
v 0.189516 0.487038 0.029489
v 0.189516 0.487038 0.029489
v 0.189516 1.519005 0.959402
v 0.189516 1.519005 0.959402
v 0.189516 1.519005 0.959402
v 0.189516 1.519005 0.029489
v 0.189516 1.519005 0.029489
v 0.189516 1.519005 0.029489
v 0.119508 0.487038 0.959402
v 0.119508 0.487038 0.959402
v 0.119508 0.487038 0.959402
v 0.119508 0.487038 0.029489
v 0.119508 0.487038 0.029489
v 0.119508 0.487038 0.029489
v 0.119508 1.519005 0.959402
v 0.119508 1.519005 0.959402
v 0.119508 1.519005 0.959402
v 0.119508 1.519005 0.029489
v 0.119508 1.519005 0.029489
v 0.119508 1.519005 0.029489
vn 1.0000 -0.0000 -0.0000
vn -0.0000 1.0000 -0.0000
vn -1.0000 -0.0000 -0.0000
vn -0.0000 -1.0000 -0.0000
vn -0.0000 -0.0000 1.0000
vn -0.0000 -0.0000 -1.0000
vt 0.375000 0.000000
vt 0.625000 0.000000
vt 0.625000 0.250000
vt 0.375000 0.250000
vt 0.625000 0.500000
vt 0.375000 0.500000
vt 0.625000 0.750000
vt 0.375000 0.750000
vt 0.625000 1.000000
vt 0.375000 1.000000
vt 0.125000 0.500000
vt 0.125000 0.750000
vt 0.875000 0.500000
vt 0.875000 0.750000
s 0
usemtl Material.015
f 3/1/1 6/2/1 12/3/1
f 3/1/1 12/3/1 9/4/1
f 7/4/2 10/3/2 22/5/2
f 7/4/2 22/5/2 19/6/2
f 21/6/3 24/5/3 18/7/3
f 21/6/3 18/7/3 15/8/3
f 13/8/4 16/7/4 4/9/4
f 13/8/4 4/9/4 1/10/4
f 8/11/5 20/6/5 14/8/5
f 8/11/5 14/8/5 2/12/5
f 23/5/6 11/13/6 5/14/6
f 23/5/6 5/14/6 17/7/6
o Cube.001
v 0.119672 -0.006437 0.896210
v 0.119672 -0.006437 0.896210
v 0.119672 -0.006437 0.896210
v 0.119672 0.923477 0.896210
v 0.119672 0.923477 0.896210
v 0.119672 0.923477 0.896210
v 0.626807 -0.006437 0.896210
v 0.626807 -0.006437 0.896210
v 0.626807 -0.006437 0.896210
v 0.626807 0.923477 0.896210
v 0.626807 0.923477 0.896210
v 0.626807 0.923477 0.896210
v 0.119672 -0.006437 0.996472
v 0.119672 -0.006437 0.996472
v 0.119672 -0.006437 0.996472
v 0.119672 0.923477 0.996472
v 0.119672 0.923477 0.996472
v 0.119672 0.923477 0.996472
v 0.626807 -0.006437 0.996472
v 0.626807 -0.006437 0.996472
v 0.626807 -0.006437 0.996472
v 0.626807 0.923477 0.996472
v 0.626807 0.923477 0.996472
v 0.626807 0.923477 0.996472
vn -0.0000 -0.0000 -1.0000
vn 1.0000 -0.0000 -0.0000
vn -0.0000 -0.0000 1.0000
vn -1.0000 -0.0000 -0.0000
vn -0.0000 -1.0000 -0.0000
vn -0.0000 1.0000 -0.0000
vt 0.375000 0.000000
vt 0.625000 0.000000
vt 0.625000 0.250000
vt 0.375000 0.250000
vt 0.625000 0.500000
vt 0.375000 0.500000
vt 0.625000 0.750000
vt 0.375000 0.750000
vt 0.625000 1.000000
vt 0.375000 1.000000
vt 0.125000 0.500000
vt 0.125000 0.750000
vt 0.875000 0.500000
vt 0.875000 0.750000
s 0
usemtl Material.016
f 27/15/7 30/16/7 36/17/7
f 27/15/7 36/17/7 33/18/7
f 31/18/8 34/17/8 46/19/8
f 31/18/8 46/19/8 43/20/8
f 45/20/9 48/19/9 42/21/9
f 45/20/9 42/21/9 39/22/9
f 37/22/10 40/21/10 28/23/10
f 37/22/10 28/23/10 25/24/10
f 32/25/11 44/20/11 38/22/11
f 32/25/11 38/22/11 26/26/11
f 47/19/12 35/27/12 29/28/12
f 47/19/12 29/28/12 41/21/12
o Cube.002
v 0.118688 -0.006437 -0.005575
v 0.118688 -0.006437 -0.005575
v 0.118688 -0.006437 -0.005575
v 0.118688 0.923477 -0.005575
v 0.118688 0.923477 -0.005575
v 0.118688 0.923477 -0.005575
v 0.625823 -0.006437 -0.005575
v 0.625823 -0.006437 -0.005575
v 0.625823 -0.006437 -0.005575
v 0.625823 0.923477 -0.005575
v 0.625823 0.923477 -0.005575
v 0.625823 0.923477 -0.005575
v 0.118688 -0.006437 0.094687
v 0.118688 -0.006437 0.094687
v 0.118688 -0.006437 0.094687
v 0.118688 0.923477 0.094687
v 0.118688 0.923477 0.094687
v 0.118688 0.923477 0.094687
v 0.625823 -0.006437 0.094687
v 0.625823 -0.006437 0.094687
v 0.625823 -0.006437 0.094687
v 0.625823 0.923477 0.094687
v 0.625823 0.923477 0.094687
v 0.625823 0.923477 0.094687
vn -0.0000 -0.0000 -1.0000
vn 1.0000 -0.0000 -0.0000
vn -0.0000 -0.0000 1.0000
vn -1.0000 -0.0000 -0.0000
vn -0.0000 -1.0000 -0.0000
vn -0.0000 1.0000 -0.0000
vt 0.375000 0.000000
vt 0.625000 0.000000
vt 0.625000 0.250000
vt 0.375000 0.250000
vt 0.625000 0.500000
vt 0.375000 0.500000
vt 0.625000 0.750000
vt 0.375000 0.750000
vt 0.625000 1.000000
vt 0.375000 1.000000
vt 0.125000 0.500000
vt 0.125000 0.750000
vt 0.875000 0.500000
vt 0.875000 0.750000
s 0
usemtl Material.017
f 51/29/13 54/30/13 60/31/13
f 51/29/13 60/31/13 57/32/13
f 55/32/14 58/31/14 70/33/14
f 55/32/14 70/33/14 67/34/14
f 69/34/15 72/33/15 66/35/15
f 69/34/15 66/35/15 63/36/15
f 61/36/16 64/35/16 52/37/16
f 61/36/16 52/37/16 49/38/16
f 56/39/17 68/34/17 62/36/17
f 56/39/17 62/36/17 50/40/17
f 71/33/18 59/41/18 53/42/18
f 71/33/18 53/42/18 65/35/18
o Cube.003
v 0.159183 0.681568 0.894540
v 0.159183 0.681568 0.894540
v 0.159183 0.681568 0.894540
v 0.159183 0.681568 0.101599
v 0.159183 0.681568 0.101599
v 0.159183 0.681568 0.101599
v 0.631243 0.681568 0.894540
v 0.631243 0.681568 0.894540
v 0.631243 0.681568 0.101599
v 0.631243 0.681568 0.101599
v 0.159183 0.718772 0.894540
v 0.159183 0.718772 0.101599
v 0.631243 0.718772 0.894540
v 0.631243 0.718772 0.101599
vn -0.0785 -0.9958 0.0467
vn -0.0785 -0.9958 -0.0467
vn 0.0785 -0.9958 -0.0467
vn 0.0785 -0.9958 0.0467
vn 0.0785 0.9958 -0.0467
vn 0.0785 0.9958 0.0467
vn -0.0785 0.9958 -0.0467
vn -0.0785 0.9958 0.0467
vt 0.375000 0.000000
vt 0.625000 0.000000
vt 0.625000 0.250000
vt 0.375000 0.250000
vt 0.625000 0.500000
vt 0.375000 0.500000
vt 0.625000 0.750000
vt 0.375000 0.750000
vt 0.625000 1.000000
vt 0.375000 1.000000
vt 0.125000 0.500000
vt 0.125000 0.750000
vt 0.875000 0.500000
vt 0.875000 0.750000
s 1
f 75/43/19 77/44/20 81/45/21
f 75/43/19 81/45/21 80/46/22
f 80/46/22 81/45/21 86/47/23
f 80/46/22 86/47/23 85/48/24
f 85/48/24 86/47/23 84/49/25
f 85/48/24 84/49/25 83/50/26
f 83/50/26 84/49/25 76/51/20
f 83/50/26 76/51/20 74/52/19
f 79/53/22 85/48/24 83/50/26
f 79/53/22 83/50/26 73/54/19
f 86/47/23 82/55/21 78/56/20
f 86/47/23 78/56/20 84/49/25
o Cube.004
v 0.181298 0.752294 0.959337
v 0.181298 0.752294 0.959337
v 0.181298 0.752294 0.959337
v 0.396718 0.752294 0.959337
v 0.396718 0.752294 0.959337
v 0.396718 0.752294 0.959337
v 0.181298 1.522429 0.959337
v 0.181298 1.522429 0.959337
v 0.181298 1.522429 0.959337
v 0.396718 1.522429 0.959337
v 0.396718 1.522429 0.959337
v 0.396718 1.522429 0.959337
v 0.181298 0.752294 0.922133
v 0.181298 0.752294 0.922133
v 0.181298 0.752294 0.922133
v 0.396718 0.752294 0.922133
v 0.396718 0.752294 0.922133
v 0.396718 0.752294 0.922133
v 0.181298 1.522429 0.922133
v 0.181298 1.522429 0.922133
v 0.181298 1.522429 0.922133
v 0.396718 1.522429 0.922133
v 0.396718 1.522429 0.922133
v 0.396718 1.522429 0.922133
vn -0.0000 -0.0000 1.0000
vn -0.0000 1.0000 -0.0000
vn -0.0000 -0.0000 -1.0000
vn -0.0000 -1.0000 -0.0000
vn -1.0000 -0.0000 -0.0000
vn 1.0000 -0.0000 -0.0000
vt 0.375000 0.000000
vt 0.625000 0.000000
vt 0.625000 0.250000
vt 0.375000 0.250000
vt 0.625000 0.500000
vt 0.375000 0.500000
vt 0.625000 0.750000
vt 0.375000 0.750000
vt 0.625000 1.000000
vt 0.375000 1.000000
vt 0.125000 0.500000
vt 0.125000 0.750000
vt 0.875000 0.500000
vt 0.875000 0.750000
s 0
usemtl Material.018
f 89/57/27 92/58/27 98/59/27
f 89/57/27 98/59/27 95/60/27
f 93/60/28 96/59/28 108/61/28
f 93/60/28 108/61/28 105/62/28
f 107/62/29 110/61/29 104/63/29
f 107/62/29 104/63/29 101/64/29
f 99/64/30 102/63/30 90/65/30
f 99/64/30 90/65/30 87/66/30
f 94/67/31 106/62/31 100/64/31
f 94/67/31 100/64/31 88/68/31
f 109/61/32 97/69/32 91/70/32
f 109/61/32 91/70/32 103/63/32
o Cube.005
v 0.179589 0.752394 0.067811
v 0.179589 0.752394 0.067811
v 0.179589 0.752394 0.067811
v 0.395009 0.752394 0.067811
v 0.395009 0.752394 0.067811
v 0.395009 0.752394 0.067811
v 0.179589 1.522528 0.067811
v 0.179589 1.522528 0.067811
v 0.179589 1.522528 0.067811
v 0.395009 1.522528 0.067811
v 0.395009 1.522528 0.067811
v 0.395009 1.522528 0.067811
v 0.179589 0.752394 0.030607
v 0.179589 0.752394 0.030607
v 0.179589 0.752394 0.030607
v 0.395009 0.752394 0.030607
v 0.395009 0.752394 0.030607
v 0.395009 0.752394 0.030607
v 0.179589 1.522528 0.030607
v 0.179589 1.522528 0.030607
v 0.179589 1.522528 0.030607
v 0.395009 1.522528 0.030607
v 0.395009 1.522528 0.030607
v 0.395009 1.522528 0.030607
vn -0.0000 -0.0000 1.0000
vn -0.0000 1.0000 -0.0000
vn -0.0000 -0.0000 -1.0000
vn -0.0000 -1.0000 -0.0000
vn -1.0000 -0.0000 -0.0000
vn 1.0000 -0.0000 -0.0000
vt 0.375000 0.000000
vt 0.625000 0.000000
vt 0.625000 0.250000
vt 0.375000 0.250000
vt 0.625000 0.500000
vt 0.375000 0.500000
vt 0.625000 0.750000
vt 0.375000 0.750000
vt 0.625000 1.000000
vt 0.375000 1.000000
vt 0.125000 0.500000
vt 0.125000 0.750000
vt 0.875000 0.500000
vt 0.875000 0.750000
s 0
usemtl Material.019
f 113/71/33 116/72/33 122/73/33
f 113/71/33 122/73/33 119/74/33
f 117/74/34 120/73/34 132/75/34
f 117/74/34 132/75/34 129/76/34
f 131/76/35 134/75/35 128/77/35
f 131/76/35 128/77/35 125/78/35
f 123/78/36 126/77/36 114/79/36
f 123/78/36 114/79/36 111/80/36
f 118/81/37 130/76/37 124/78/37
f 118/81/37 124/78/37 112/82/37
f 133/75/38 121/83/38 115/84/38
f 133/75/38 115/84/38 127/77/38
o Cube.006
v 0.116127 1.488197 0.025129
v 0.116127 1.488197 0.025129
v 0.116127 1.488197 0.025129
v 0.409894 1.488197 0.025129
v 0.409894 1.488197 0.025129
v 0.409894 1.488197 0.025129
v 0.116127 1.489795 0.967083
v 0.116127 1.489795 0.967083
v 0.116127 1.489795 0.967083
v 0.409893 1.489795 0.967083
v 0.409893 1.489795 0.967083
v 0.409893 1.489795 0.967083
v 0.116127 1.525552 0.025066
v 0.116127 1.525552 0.025066
v 0.116127 1.525552 0.025066
v 0.409894 1.525552 0.025066
v 0.409894 1.525552 0.025066
v 0.409894 1.525552 0.025066
v 0.116127 1.527151 0.967020
v 0.116127 1.527151 0.967020
v 0.116127 1.527151 0.967020
v 0.409893 1.527151 0.967020
v 0.409893 1.527151 0.967020
v 0.409893 1.527151 0.967020
vn -0.0000 -1.0000 0.0017
vn -0.0000 0.0017 1.0000
vn -0.0000 1.0000 -0.0017
vn -0.0000 -0.0017 -1.0000
vn -1.0000 -0.0000 -0.0000
vn 1.0000 -0.0000 -0.0000
vt 0.375000 0.000000
vt 0.625000 0.000000
vt 0.625000 0.250000
vt 0.375000 0.250000
vt 0.625000 0.500000
vt 0.375000 0.500000
vt 0.625000 0.750000
vt 0.375000 0.750000
vt 0.625000 1.000000
vt 0.375000 1.000000
vt 0.125000 0.500000
vt 0.125000 0.750000
vt 0.875000 0.500000
vt 0.875000 0.750000
s 0
usemtl Material.020
f 137/85/39 140/86/39 146/87/39
f 137/85/39 146/87/39 143/88/39
f 141/88/40 144/87/40 156/89/40
f 141/88/40 156/89/40 153/90/40
f 155/90/41 158/89/41 152/91/41
f 155/90/41 152/91/41 149/92/41
f 147/92/42 150/91/42 138/93/42
f 147/92/42 138/93/42 135/94/42
f 142/95/43 154/90/43 148/92/43
f 142/95/43 148/92/43 136/96/43
f 157/89/44 145/97/44 139/98/44
f 157/89/44 139/98/44 151/91/44
o Cube.007
v 0.179688 0.929035 0.068279
v 0.179688 0.929035 0.068279
v 0.179688 0.929035 0.068279
v 0.394910 0.929035 0.068279
v 0.394910 0.929035 0.068279
v 0.394910 0.929035 0.068279
v 0.179688 0.930485 0.922831
v 0.179688 0.930485 0.922831
v 0.394910 0.930485 0.922831
v 0.394910 0.930485 0.922831
v 0.179688 0.903964 0.068322
v 0.394910 0.903964 0.068322
v 0.179688 0.905414 0.922874
v 0.394910 0.905414 0.922874
vn -0.1156 0.9928 -0.0308
vn 0.1157 0.9928 -0.0308
vn 0.1157 0.9929 0.0274
vn -0.1157 0.9929 0.0274
vn 0.1157 -0.9928 0.0308
vn -0.1157 -0.9928 0.0308
vn 0.1157 -0.9929 -0.0274
vn -0.1157 -0.9929 -0.0274
vn 0.1156 0.9928 -0.0308
vn -0.1157 0.9928 -0.0308
vn 0.1156 0.9929 0.0274
vt 0.375000 0.000000
vt 0.625000 0.000000
vt 0.625000 0.250000
vt 0.375000 0.250000
vt 0.625000 0.500000
vt 0.375000 0.500000
vt 0.625000 0.750000
vt 0.375000 0.750000
vt 0.625000 1.000000
vt 0.375000 1.000000
vt 0.125000 0.500000
vt 0.125000 0.750000
vt 0.875000 0.500000
vt 0.875000 0.750000
s 1
f 161/99/45 167/101/47 163/100/46
f 161/99/45 166/102/48 167/101/47
f 166/102/48 172/103/49 167/101/47
f 166/102/48 171/104/50 172/103/49
f 171/104/50 170/105/51 172/103/49
f 171/104/50 169/106/52 170/105/51
f 169/106/52 162/107/53 170/105/51
f 169/106/52 160/108/54 162/107/53
f 165/109/48 169/106/52 171/104/50
f 165/109/48 159/110/45 169/106/52
f 172/103/49 164/112/46 168/111/55
f 172/103/49 170/105/51 164/112/46
o Cube.008
v 0.179589 1.484386 0.707832
v 0.179589 1.484386 0.707832
v 0.179589 1.484386 0.707832
v 0.395009 1.484386 0.707832
v 0.395009 1.484386 0.707832
v 0.395009 1.484386 0.707832
v 0.179589 0.930344 0.713479
v 0.179589 0.930344 0.713479
v 0.179589 0.930344 0.713479
v 0.395009 0.930344 0.713479
v 0.395009 0.930344 0.713479
v 0.395009 0.930344 0.713479
v 0.179589 1.484559 0.724777
v 0.179589 1.484559 0.724777
v 0.179589 1.484559 0.724777
v 0.395009 1.484559 0.724777
v 0.395009 1.484559 0.724777
v 0.395009 1.484559 0.724777
v 0.179589 0.930516 0.730424
v 0.179589 0.930516 0.730424
v 0.179589 0.930516 0.730424
v 0.395009 0.930516 0.730424
v 0.395009 0.930516 0.730424
v 0.395009 0.930516 0.730424
vn -0.0000 -0.0102 -0.9999
vn -0.0000 -0.9999 0.0102
vn -0.0000 0.0102 0.9999
vn -0.0000 0.9999 -0.0102
vn -1.0000 -0.0000 -0.0000
vn 1.0000 -0.0000 -0.0000
vt 0.375000 0.000000
vt 0.625000 0.000000
vt 0.625000 0.250000
vt 0.375000 0.250000
vt 0.625000 0.500000
vt 0.375000 0.500000
vt 0.625000 0.750000
vt 0.375000 0.750000
vt 0.625000 1.000000
vt 0.375000 1.000000
vt 0.125000 0.500000
vt 0.125000 0.750000
vt 0.875000 0.500000
vt 0.875000 0.750000
s 0
f 175/113/56 178/114/56 184/115/56
f 175/113/56 184/115/56 181/116/56
f 179/116/57 182/115/57 194/117/57
f 179/116/57 194/117/57 191/118/57
f 193/118/58 196/117/58 190/119/58
f 193/118/58 190/119/58 187/120/58
f 185/120/59 188/119/59 176/121/59
f 185/120/59 176/121/59 173/122/59
f 180/123/60 192/118/60 186/120/60
f 180/123/60 186/120/60 174/124/60
f 195/117/61 183/125/61 177/126/61
f 195/117/61 177/126/61 189/119/61
o Cube.009
v 0.179589 1.484396 0.300513
v 0.179589 1.484396 0.300513
v 0.179589 1.484396 0.300513
v 0.395009 1.484396 0.300513
v 0.395009 1.484396 0.300513
v 0.395009 1.484396 0.300513
v 0.179589 0.930355 0.306159
v 0.179589 0.930355 0.306159
v 0.179589 0.930355 0.306159
v 0.395009 0.930355 0.306159
v 0.395009 0.930355 0.306159
v 0.395009 0.930355 0.306159
v 0.179589 1.484547 0.315339
v 0.179589 1.484547 0.315339
v 0.179589 1.484547 0.315339
v 0.395009 1.484547 0.315339
v 0.395009 1.484547 0.315339
v 0.395009 1.484547 0.315339
v 0.179589 0.930506 0.320986
v 0.179589 0.930506 0.320986
v 0.179589 0.930506 0.320986
v 0.395009 0.930506 0.320986
v 0.395009 0.930506 0.320986
v 0.395009 0.930506 0.320986
vn -0.0000 -0.0102 -0.9999
vn -0.0000 -0.9999 0.0102
vn -0.0000 0.0102 0.9999
vn -0.0000 0.9999 -0.0102
vn -1.0000 -0.0000 -0.0000
vn 1.0000 -0.0000 -0.0000
vt 0.375000 0.000000
vt 0.625000 0.000000
vt 0.625000 0.250000
vt 0.375000 0.250000
vt 0.625000 0.500000
vt 0.375000 0.500000
vt 0.625000 0.750000
vt 0.375000 0.750000
vt 0.625000 1.000000
vt 0.375000 1.000000
vt 0.125000 0.500000
vt 0.125000 0.750000
vt 0.875000 0.500000
vt 0.875000 0.750000
s 0
f 199/127/62 202/128/62 208/129/62
f 199/127/62 208/129/62 205/130/62
f 203/130/63 206/129/63 218/131/63
f 203/130/63 218/131/63 215/132/63
f 217/132/64 220/131/64 214/133/64
f 217/132/64 214/133/64 211/134/64
f 209/134/65 212/133/65 200/135/65
f 209/134/65 200/135/65 197/136/65
f 204/137/66 216/132/66 210/134/66
f 204/137/66 210/134/66 198/138/66
f 219/131/67 207/139/67 201/140/67
f 219/131/67 201/140/67 213/133/67
o Cube.010
v 0.179652 1.178447 0.305873
v 0.179652 1.178447 0.305873
v 0.179652 1.178447 0.305873
v 0.179652 1.165330 0.305873
v 0.179652 1.165330 0.305873
v 0.179652 1.165330 0.305873
v 0.179652 1.178447 0.069212
v 0.179652 1.178447 0.069212
v 0.179652 1.178447 0.069212
v 0.179652 1.165330 0.069212
v 0.179652 1.165330 0.069212
v 0.179652 1.165330 0.069212
v 0.384255 1.178447 0.305873
v 0.384255 1.178447 0.305873
v 0.384255 1.178447 0.305873
v 0.384255 1.165330 0.305873
v 0.384255 1.165330 0.305873
v 0.384255 1.165330 0.305873
v 0.384255 1.178447 0.069212
v 0.384255 1.178447 0.069212
v 0.384255 1.178447 0.069212
v 0.384255 1.165330 0.069212
v 0.384255 1.165330 0.069212
v 0.384255 1.165330 0.069212
vn -1.0000 -0.0000 -0.0000
vn -0.0000 -0.0000 -1.0000
vn 1.0000 -0.0000 -0.0000
vn -0.0000 -0.0000 1.0000
vn -0.0000 1.0000 -0.0000
vn -0.0000 -1.0000 -0.0000
vt 0.375000 0.000000
vt 0.625000 0.000000
vt 0.625000 0.250000
vt 0.375000 0.250000
vt 0.625000 0.500000
vt 0.375000 0.500000
vt 0.625000 0.750000
vt 0.375000 0.750000
vt 0.625000 1.000000
vt 0.375000 1.000000
vt 0.125000 0.500000
vt 0.125000 0.750000
vt 0.875000 0.500000
vt 0.875000 0.750000
s 0
f 223/141/68 232/143/68 226/142/68
f 223/141/68 229/144/68 232/143/68
f 227/144/69 242/145/69 230/143/69
f 227/144/69 239/146/69 242/145/69
f 241/146/70 238/147/70 244/145/70
f 241/146/70 235/148/70 238/147/70
f 233/148/71 224/149/71 236/147/71
f 233/148/71 221/150/71 224/149/71
f 228/151/72 234/148/72 240/146/72
f 228/151/72 222/152/72 234/148/72
f 243/145/73 225/154/73 231/153/73
f 243/145/73 237/147/73 225/154/73
o Cube.011
v 0.179652 1.090949 0.955199
v 0.179652 1.090949 0.955199
v 0.179652 1.090949 0.955199
v 0.179652 1.077832 0.955199
v 0.179652 1.077832 0.955199
v 0.179652 1.077832 0.955199
v 0.179652 1.090949 0.718538
v 0.179652 1.090949 0.718538
v 0.179652 1.090949 0.718538
v 0.179652 1.077832 0.718538
v 0.179652 1.077832 0.718538
v 0.179652 1.077832 0.718538
v 0.384255 1.090949 0.955199
v 0.384255 1.090949 0.955199
v 0.384255 1.090949 0.955199
v 0.384255 1.077832 0.955199
v 0.384255 1.077832 0.955199
v 0.384255 1.077832 0.955199
v 0.384255 1.090949 0.718538
v 0.384255 1.090949 0.718538
v 0.384255 1.090949 0.718538
v 0.384255 1.077832 0.718538
v 0.384255 1.077832 0.718538
v 0.384255 1.077832 0.718538
vn -1.0000 -0.0000 -0.0000
vn -0.0000 -0.0000 -1.0000
vn 1.0000 -0.0000 -0.0000
vn -0.0000 -0.0000 1.0000
vn -0.0000 1.0000 -0.0000
vn -0.0000 -1.0000 -0.0000
vt 0.375000 0.000000
vt 0.625000 0.000000
vt 0.625000 0.250000
vt 0.375000 0.250000
vt 0.625000 0.500000
vt 0.375000 0.500000
vt 0.625000 0.750000
vt 0.375000 0.750000
vt 0.625000 1.000000
vt 0.375000 1.000000
vt 0.125000 0.500000
vt 0.125000 0.750000
vt 0.875000 0.500000
vt 0.875000 0.750000
s 0
f 247/155/74 256/157/74 250/156/74
f 247/155/74 253/158/74 256/157/74
f 251/158/75 266/159/75 254/157/75
f 251/158/75 263/160/75 266/159/75
f 265/160/76 262/161/76 268/159/76
f 265/160/76 259/162/76 262/161/76
f 257/162/77 248/163/77 260/161/77
f 257/162/77 245/164/77 248/163/77
f 252/165/78 258/162/78 264/160/78
f 252/165/78 246/166/78 258/162/78
f 267/159/79 249/168/79 255/167/79
f 267/159/79 261/161/79 249/168/79
o Cube.012
v 0.179652 1.310028 0.955199
v 0.179652 1.310028 0.955199
v 0.179652 1.310028 0.955199
v 0.179652 1.296911 0.955199
v 0.179652 1.296911 0.955199
v 0.179652 1.296911 0.955199
v 0.179652 1.310028 0.718538
v 0.179652 1.310028 0.718538
v 0.179652 1.310028 0.718538
v 0.179652 1.296911 0.718538
v 0.179652 1.296911 0.718538
v 0.179652 1.296911 0.718538
v 0.384255 1.310028 0.955199
v 0.384255 1.310028 0.955199
v 0.384255 1.310028 0.955199
v 0.384255 1.296911 0.955199
v 0.384255 1.296911 0.955199
v 0.384255 1.296911 0.955199
v 0.384255 1.310028 0.718538
v 0.384255 1.310028 0.718538
v 0.384255 1.310028 0.718538
v 0.384255 1.296911 0.718538
v 0.384255 1.296911 0.718538
v 0.384255 1.296911 0.718538
vn -1.0000 -0.0000 -0.0000
vn -0.0000 -0.0000 -1.0000
vn 1.0000 -0.0000 -0.0000
vn -0.0000 -0.0000 1.0000
vn -0.0000 1.0000 -0.0000
vn -0.0000 -1.0000 -0.0000
vt 0.375000 0.000000
vt 0.625000 0.000000
vt 0.625000 0.250000
vt 0.375000 0.250000
vt 0.625000 0.500000
vt 0.375000 0.500000
vt 0.625000 0.750000
vt 0.375000 0.750000
vt 0.625000 1.000000
vt 0.375000 1.000000
vt 0.125000 0.500000
vt 0.125000 0.750000
vt 0.875000 0.500000
vt 0.875000 0.750000
s 0
f 271/169/80 280/171/80 274/170/80
f 271/169/80 277/172/80 280/171/80
f 275/172/81 290/173/81 278/171/81
f 275/172/81 287/174/81 290/173/81
f 289/174/82 286/175/82 292/173/82
f 289/174/82 283/176/82 286/175/82
f 281/176/83 272/177/83 284/175/83
f 281/176/83 269/178/83 272/177/83
f 276/179/84 282/176/84 288/174/84
f 276/179/84 270/180/84 282/176/84
f 291/173/85 273/182/85 279/181/85
f 291/173/85 285/175/85 273/182/85
